# xmcd
#
# Track frame offsets: 
#        150
#        20172
#        40717
#        61360
#        92400
#
# Disc length: 1250 seconds
#
# Revision: 1
# Processed by: cddbd v1.5.2PL0 Copyright (c) Steve Scherf et al.
# Submitted via: ExactAudioCopy v0.99pb5
#
DISCID=3604e005
DTITLE=Noisuf-X - Excessive Extension (limited boxset) disc 2
DYEAR=2010
DGENRE=Rhythm'N'noise/TBM
TTITLE0=Jaws (feat. Johan Van Roy)
TTITLE1=Creep (feat. Peter Spilles)
TTITLE2=Revelation 9:6
TTITLE3=Industrial Revolution
TTITLE4=Datas: Ringtone and Wallpaper
EXTD=
EXTT0=
EXTT1=
EXTT2=
EXTT3=
EXTT4=
PLAYORDER=
